<?xml version="1.0" encoding="UTF-8"?>
<svg xmlns="http://www.w3.org/2000/svg" xmlns:xlink="http://www.w3.org/1999/xlink" width="50pt" height="50pt" viewBox="0 0 50 50" version="1.1">
<g id="surface1">
<path style=" stroke:none;fill-rule:evenodd;fill:rgb(0%,0%,0%);fill-opacity:1;" d="M 24.523438 0.0742188 C 23.925781 0.203125 24.332031 -0.1875 13.078125 11.074219 C 1.445312 22.710938 2.238281 21.882812 2.097656 22.59375 C 1.9375 23.402344 2.449219 24.410156 3.21875 24.804688 C 3.6875 25.042969 3.785156 25.046875 8.289062 25.046875 L 12.5 25.050781 L 12.5 36.671875 C 12.5 48.289062 12.5 48.292969 12.601562 48.59375 C 12.820312 49.242188 13.328125 49.738281 13.964844 49.921875 C 14.210938 49.992188 15.269531 50 25.097656 49.988281 L 35.960938 49.976562 L 36.28125 49.820312 C 36.644531 49.640625 37.082031 49.21875 37.253906 48.882812 C 37.507812 48.382812 37.5 48.894531 37.5 36.535156 L 37.5 25.050781 L 41.691406 25.050781 C 44.339844 25.050781 45.980469 25.03125 46.148438 25 C 47.519531 24.738281 48.285156 23.234375 47.671875 22 C 47.46875 21.585938 26.253906 0.390625 25.875 0.222656 C 25.382812 0 25.035156 -0.0351562 24.523438 0.0742188 M 37.757812 20.851562 C 35.023438 20.871094 34.824219 20.878906 34.617188 20.96875 C 34.023438 21.222656 33.597656 21.667969 33.402344 22.257812 C 33.300781 22.554688 33.300781 22.558594 33.300781 34.179688 L 33.300781 45.800781 L 16.699219 45.800781 L 16.699219 34.3125 C 16.699219 21.957031 16.707031 22.46875 16.453125 21.96875 C 16.28125 21.628906 15.84375 21.207031 15.480469 21.03125 L 15.160156 20.875 L 12.207031 20.859375 L 9.257812 20.847656 L 24.976562 5.128906 L 32.824219 12.976562 L 40.675781 20.824219 Z M 18.75 39.890625 C 17.367188 40.316406 17.042969 42.066406 18.1875 42.929688 C 18.652344 43.28125 18.28125 43.261719 24.824219 43.261719 L 30.710938 43.261719 L 30.992188 43.15625 C 32.378906 42.636719 32.4375 40.59375 31.082031 39.980469 L 30.835938 39.867188 L 24.851562 39.859375 C 21.5625 39.855469 18.816406 39.867188 18.75 39.890625 "/>
</g>
</svg>
