<svg height="400" viewBox="0 0 400 400" width="400" xmlns="http://www.w3.org/2000/svg"><path d="m196.192.592c-4.796 1.042-1.539-2.088-91.579 88.004-93.049 93.104-86.711 86.454-87.826 92.148-1.272 6.487 2.812 14.54 8.967 17.679 3.756 1.917 4.521 1.954 40.555 1.961l33.691.007v92.981c0 92.951 0 92.982.807 95.377 1.751 5.197 5.825 9.162 10.926 10.634 1.956.564 10.438.614 89.062.523l86.9-.101 2.563-1.254c2.886-1.413 6.39-4.794 7.769-7.497 2.04-3.999 1.959.094 1.966-98.769l.007-91.894h33.54c21.181 0 34.316-.147 35.643-.399 10.983-2.083 17.095-14.118 12.191-24.002-1.636-3.298-171.353-172.859-174.375-174.215-3.929-1.763-6.725-2.069-10.807-1.183m105.86 166.205c-21.877.183-23.451.242-25.099.944-4.776 2.033-8.158 5.612-9.739 10.306-.807 2.396-.808 2.427-.808 95.378v92.981h-66.406-66.406l-.007-91.894c-.007-98.863.074-94.77-1.966-98.77-1.379-2.702-4.883-6.083-7.769-7.496l-2.563-1.254-23.62-.109-23.621-.11 62.878-62.879 62.878-62.878 62.794 62.793 62.794 62.793zm-152.052 152.315c-11.061 3.412-13.648 17.423-4.492 24.333 3.707 2.797.729 2.649 53.073 2.649h47.093l2.261-.845c11.086-4.143 11.558-20.503.731-25.404l-1.986-.9-47.852-.067c-26.318-.037-48.291.068-48.828.234" fill-rule="evenodd"/></svg>